<svg height="512" viewBox="0 0 64 64" width="512" xmlns="http://www.w3.org/2000/svg"><path d="m26 8a13.015 13.015 0 0 0 -13 13c0 9.244 11.72 24 12.219 24.625a1 1 0 0 0 1.562 0c.499-.625 12.219-15.381 12.219-24.625a13.015 13.015 0 0 0 -13-13zm0 35.362c-2.631-3.48-11-15.124-11-22.362a11 11 0 0 1 22 0c0 7.238-8.369 18.882-11 22.362z"/><path d="m59 2h-54a3 3 0 0 0 -3 3v54a3 3 0 0 0 3 3h54a3 3 0 0 0 3-3v-54a3 3 0 0 0 -3-3zm-55 3a1 1 0 0 1 1-1h43v45a1 1 0 0 1 -1 1h-43zm56 54a1 1 0 0 1 -1 1h-54a1 1 0 0 1 -1-1v-7h43a3 3 0 0 0 3-3v-45h4v50a1 1 0 0 1 -1 1h-45v2h45a3 3 0 0 0 3-3v-50h3a1 1 0 0 1 1 1z"/><path d="m26 13a7 7 0 1 0 7 7 7.009 7.009 0 0 0 -7-7zm0 12a5 5 0 1 1 5-5 5.006 5.006 0 0 1 -5 5z"/><path d="m8 44h2v2h-2z"/><path d="m12 44h10v2h-10z"/><path d="m42 44h2v2h-2z"/><path d="m30 44h10v2h-10z"/></svg>